<mxfile host="app.diagrams.net" agent="Mozilla/5.0 (X11; Linux x86_64; rv:129.0) Gecko/20100101 Firefox/129.0" version="24.7.12">
  <diagram name="Seite-1" id="WLgMcWyRM6gNK8wQujN2">
    <mxGraphModel dx="1627" dy="1018" grid="1" gridSize="10" guides="1" tooltips="1" connect="1" arrows="1" fold="1" page="1" pageScale="1" pageWidth="827" pageHeight="1169" math="0" shadow="0">
      <root>
        <mxCell id="0" />
        <mxCell id="1" parent="0" />
        <mxCell id="peVB4DowgYNqrg0Xzfgz-1" value="" style="whiteSpace=wrap;html=1;aspect=fixed;fillColor=none;strokeColor=#d79b00;verticalAlign=middle;align=left;" parent="1" vertex="1">
          <mxGeometry x="230" y="80" width="530" height="530" as="geometry" />
        </mxCell>
        <mxCell id="peVB4DowgYNqrg0Xzfgz-2" value="Flur 2" style="rounded=0;whiteSpace=wrap;html=1;" parent="1" vertex="1">
          <mxGeometry x="460" y="280" width="300" height="140" as="geometry" />
        </mxCell>
        <mxCell id="peVB4DowgYNqrg0Xzfgz-3" value="Zimmer 3" style="rounded=0;whiteSpace=wrap;html=1;" parent="1" vertex="1">
          <mxGeometry x="460" y="420" width="300" height="190" as="geometry" />
        </mxCell>
        <mxCell id="peVB4DowgYNqrg0Xzfgz-5" value="Treppe" style="rounded=0;whiteSpace=wrap;html=1;" parent="1" vertex="1">
          <mxGeometry x="470" y="285" width="159" height="54" as="geometry" />
        </mxCell>
        <mxCell id="peVB4DowgYNqrg0Xzfgz-6" value="Flur 2" style="rounded=0;whiteSpace=wrap;html=1;" parent="1" vertex="1">
          <mxGeometry x="230" y="280" width="230" height="120" as="geometry" />
        </mxCell>
        <mxCell id="peVB4DowgYNqrg0Xzfgz-7" value="Badezimmer" style="rounded=0;whiteSpace=wrap;html=1;" parent="1" vertex="1">
          <mxGeometry x="230" y="400" width="230" height="210" as="geometry" />
        </mxCell>
        <mxCell id="peVB4DowgYNqrg0Xzfgz-8" value="Zimmer 1" style="rounded=0;whiteSpace=wrap;html=1;" parent="1" vertex="1">
          <mxGeometry x="230" y="80" width="230" height="200" as="geometry" />
        </mxCell>
        <mxCell id="peVB4DowgYNqrg0Xzfgz-9" value="Zimmer 2" style="rounded=0;whiteSpace=wrap;html=1;" parent="1" vertex="1">
          <mxGeometry x="460" y="80" width="300" height="200" as="geometry" />
        </mxCell>
        <mxCell id="peVB4DowgYNqrg0Xzfgz-10" value="" style="endArrow=none;html=1;rounded=0;" parent="1" edge="1">
          <mxGeometry width="50" height="50" relative="1" as="geometry">
            <mxPoint x="460" y="70" as="sourcePoint" />
            <mxPoint x="230" y="70" as="targetPoint" />
          </mxGeometry>
        </mxCell>
        <mxCell id="peVB4DowgYNqrg0Xzfgz-11" value="3,45" style="edgeLabel;html=1;align=center;verticalAlign=middle;resizable=0;points=[];" parent="peVB4DowgYNqrg0Xzfgz-10" vertex="1" connectable="0">
          <mxGeometry x="-0.0609" y="-2" relative="1" as="geometry">
            <mxPoint as="offset" />
          </mxGeometry>
        </mxCell>
        <mxCell id="peVB4DowgYNqrg0Xzfgz-12" value="" style="endArrow=none;html=1;rounded=0;" parent="1" edge="1">
          <mxGeometry width="50" height="50" relative="1" as="geometry">
            <mxPoint x="760" y="60" as="sourcePoint" />
            <mxPoint x="470" y="60" as="targetPoint" />
          </mxGeometry>
        </mxCell>
        <mxCell id="peVB4DowgYNqrg0Xzfgz-13" value="3" style="edgeLabel;html=1;align=center;verticalAlign=middle;resizable=0;points=[];" parent="peVB4DowgYNqrg0Xzfgz-12" vertex="1" connectable="0">
          <mxGeometry x="-0.069" y="-2" relative="1" as="geometry">
            <mxPoint as="offset" />
          </mxGeometry>
        </mxCell>
        <mxCell id="peVB4DowgYNqrg0Xzfgz-14" value="4,32" style="edgeLabel;html=1;align=center;verticalAlign=middle;resizable=0;points=[];" parent="peVB4DowgYNqrg0Xzfgz-12" vertex="1" connectable="0">
          <mxGeometry x="-0.0966" y="-2" relative="1" as="geometry">
            <mxPoint as="offset" />
          </mxGeometry>
        </mxCell>
        <mxCell id="peVB4DowgYNqrg0Xzfgz-15" value="" style="endArrow=none;html=1;rounded=0;" parent="1" edge="1">
          <mxGeometry width="50" height="50" relative="1" as="geometry">
            <mxPoint x="760" y="40" as="sourcePoint" />
            <mxPoint x="230" y="40" as="targetPoint" />
          </mxGeometry>
        </mxCell>
        <mxCell id="peVB4DowgYNqrg0Xzfgz-16" value="&lt;div&gt;8,09&lt;/div&gt;" style="edgeLabel;html=1;align=center;verticalAlign=middle;resizable=0;points=[];" parent="peVB4DowgYNqrg0Xzfgz-15" vertex="1" connectable="0">
          <mxGeometry x="-0.1849" y="2" relative="1" as="geometry">
            <mxPoint x="-24" y="-12" as="offset" />
          </mxGeometry>
        </mxCell>
        <mxCell id="peVB4DowgYNqrg0Xzfgz-17" value="ST" style="rounded=0;whiteSpace=wrap;html=1;fillColor=#d5e8d4;strokeColor=#82b366;" parent="1" vertex="1">
          <mxGeometry x="420" y="90" width="40" height="30" as="geometry" />
        </mxCell>
        <mxCell id="peVB4DowgYNqrg0Xzfgz-18" value="ST" style="rounded=0;whiteSpace=wrap;html=1;fillColor=#d5e8d4;strokeColor=#82b366;" parent="1" vertex="1">
          <mxGeometry x="40" y="120" width="40" height="30" as="geometry" />
        </mxCell>
        <mxCell id="peVB4DowgYNqrg0Xzfgz-19" value="Schornstein " style="text;html=1;align=left;verticalAlign=middle;whiteSpace=wrap;rounded=0;" parent="1" vertex="1">
          <mxGeometry x="90" y="120" width="60" height="30" as="geometry" />
        </mxCell>
        <mxCell id="peVB4DowgYNqrg0Xzfgz-20" value="Legende" style="text;html=1;align=center;verticalAlign=middle;whiteSpace=wrap;rounded=0;fontStyle=1" parent="1" vertex="1">
          <mxGeometry x="40" y="70" width="60" height="30" as="geometry" />
        </mxCell>
        <mxCell id="BfFW0c4Qb9V58yHOBqm7-1" value="" style="endArrow=none;html=1;rounded=0;" edge="1" parent="1">
          <mxGeometry width="50" height="50" relative="1" as="geometry">
            <mxPoint x="780" y="280" as="sourcePoint" />
            <mxPoint x="780" y="80" as="targetPoint" />
          </mxGeometry>
        </mxCell>
        <mxCell id="BfFW0c4Qb9V58yHOBqm7-2" value="3,60" style="edgeLabel;html=1;align=center;verticalAlign=middle;resizable=0;points=[];" vertex="1" connectable="0" parent="BfFW0c4Qb9V58yHOBqm7-1">
          <mxGeometry x="0.41" y="-2" relative="1" as="geometry">
            <mxPoint as="offset" />
          </mxGeometry>
        </mxCell>
        <mxCell id="BfFW0c4Qb9V58yHOBqm7-3" value="" style="endArrow=none;html=1;rounded=0;" edge="1" parent="1">
          <mxGeometry width="50" height="50" relative="1" as="geometry">
            <mxPoint x="810" y="610" as="sourcePoint" />
            <mxPoint x="810" y="80" as="targetPoint" />
          </mxGeometry>
        </mxCell>
        <mxCell id="BfFW0c4Qb9V58yHOBqm7-4" value="9,00" style="edgeLabel;html=1;align=center;verticalAlign=middle;resizable=0;points=[];" vertex="1" connectable="0" parent="BfFW0c4Qb9V58yHOBqm7-3">
          <mxGeometry x="0.41" y="-2" relative="1" as="geometry">
            <mxPoint as="offset" />
          </mxGeometry>
        </mxCell>
        <mxCell id="BfFW0c4Qb9V58yHOBqm7-5" value="" style="endArrow=none;html=1;rounded=0;" edge="1" parent="1">
          <mxGeometry width="50" height="50" relative="1" as="geometry">
            <mxPoint x="780" y="610" as="sourcePoint" />
            <mxPoint x="780" y="420" as="targetPoint" />
          </mxGeometry>
        </mxCell>
        <mxCell id="BfFW0c4Qb9V58yHOBqm7-6" value="2,70" style="edgeLabel;html=1;align=center;verticalAlign=middle;resizable=0;points=[];" vertex="1" connectable="0" parent="BfFW0c4Qb9V58yHOBqm7-5">
          <mxGeometry x="0.41" y="-2" relative="1" as="geometry">
            <mxPoint as="offset" />
          </mxGeometry>
        </mxCell>
        <mxCell id="BfFW0c4Qb9V58yHOBqm7-7" value="" style="endArrow=none;html=1;rounded=0;" edge="1" parent="1">
          <mxGeometry width="50" height="50" relative="1" as="geometry">
            <mxPoint x="800" y="420" as="sourcePoint" />
            <mxPoint x="800" y="280" as="targetPoint" />
          </mxGeometry>
        </mxCell>
        <mxCell id="BfFW0c4Qb9V58yHOBqm7-8" value="2,10" style="edgeLabel;html=1;align=center;verticalAlign=middle;resizable=0;points=[];" vertex="1" connectable="0" parent="BfFW0c4Qb9V58yHOBqm7-7">
          <mxGeometry x="0.41" y="-2" relative="1" as="geometry">
            <mxPoint as="offset" />
          </mxGeometry>
        </mxCell>
        <mxCell id="BfFW0c4Qb9V58yHOBqm7-9" value="" style="endArrow=none;html=1;rounded=0;" edge="1" parent="1">
          <mxGeometry width="50" height="50" relative="1" as="geometry">
            <mxPoint x="200" y="610" as="sourcePoint" />
            <mxPoint x="200" y="400" as="targetPoint" />
          </mxGeometry>
        </mxCell>
        <mxCell id="BfFW0c4Qb9V58yHOBqm7-10" value="3,00" style="edgeLabel;html=1;align=center;verticalAlign=middle;resizable=0;points=[];" vertex="1" connectable="0" parent="BfFW0c4Qb9V58yHOBqm7-9">
          <mxGeometry x="0.41" y="-2" relative="1" as="geometry">
            <mxPoint as="offset" />
          </mxGeometry>
        </mxCell>
        <mxCell id="BfFW0c4Qb9V58yHOBqm7-11" value="" style="endArrow=none;html=1;rounded=0;" edge="1" parent="1">
          <mxGeometry width="50" height="50" relative="1" as="geometry">
            <mxPoint x="220" y="400" as="sourcePoint" />
            <mxPoint x="220" y="280" as="targetPoint" />
          </mxGeometry>
        </mxCell>
        <mxCell id="BfFW0c4Qb9V58yHOBqm7-12" value="&lt;div&gt;1,75&lt;/div&gt;" style="edgeLabel;html=1;align=center;verticalAlign=middle;resizable=0;points=[];" vertex="1" connectable="0" parent="BfFW0c4Qb9V58yHOBqm7-11">
          <mxGeometry x="0.41" y="-2" relative="1" as="geometry">
            <mxPoint as="offset" />
          </mxGeometry>
        </mxCell>
        <mxCell id="BfFW0c4Qb9V58yHOBqm7-14" value="WS" style="rounded=0;whiteSpace=wrap;html=1;" vertex="1" parent="1">
          <mxGeometry x="470" y="80" width="40" height="30" as="geometry" />
        </mxCell>
        <mxCell id="BfFW0c4Qb9V58yHOBqm7-15" value="" style="shape=flexArrow;endArrow=classic;html=1;rounded=0;" edge="1" parent="1">
          <mxGeometry width="50" height="50" relative="1" as="geometry">
            <mxPoint x="72.5" y="210" as="sourcePoint" />
            <mxPoint x="162.5" y="240" as="targetPoint" />
          </mxGeometry>
        </mxCell>
        <mxCell id="BfFW0c4Qb9V58yHOBqm7-16" value="Süd" style="text;html=1;align=center;verticalAlign=middle;whiteSpace=wrap;rounded=0;" vertex="1" parent="1">
          <mxGeometry x="22.5" y="180" width="60" height="30" as="geometry" />
        </mxCell>
        <mxCell id="BfFW0c4Qb9V58yHOBqm7-17" value="Nord" style="text;html=1;align=center;verticalAlign=middle;whiteSpace=wrap;rounded=0;" vertex="1" parent="1">
          <mxGeometry x="157.5" y="230" width="60" height="30" as="geometry" />
        </mxCell>
        <mxCell id="BfFW0c4Qb9V58yHOBqm7-18" value="Fenster" style="rounded=0;whiteSpace=wrap;html=1;rotation=90;" vertex="1" parent="1">
          <mxGeometry x="720" y="165" width="70" height="15" as="geometry" />
        </mxCell>
        <mxCell id="BfFW0c4Qb9V58yHOBqm7-19" value="Fenster" style="rounded=0;whiteSpace=wrap;html=1;rotation=90;" vertex="1" parent="1">
          <mxGeometry x="720" y="497.5" width="70" height="15" as="geometry" />
        </mxCell>
        <mxCell id="BfFW0c4Qb9V58yHOBqm7-20" value="Fenster" style="rounded=0;whiteSpace=wrap;html=1;rotation=90;" vertex="1" parent="1">
          <mxGeometry x="200" y="160" width="70" height="15" as="geometry" />
        </mxCell>
        <mxCell id="BfFW0c4Qb9V58yHOBqm7-21" value="Fenster" style="rounded=0;whiteSpace=wrap;html=1;rotation=90;" vertex="1" parent="1">
          <mxGeometry x="190" y="497.5" width="70" height="15" as="geometry" />
        </mxCell>
        <mxCell id="BfFW0c4Qb9V58yHOBqm7-22" value="Fenster" style="rounded=0;whiteSpace=wrap;html=1;" vertex="1" parent="1">
          <mxGeometry x="565" y="600" width="70" height="15" as="geometry" />
        </mxCell>
        <mxCell id="BfFW0c4Qb9V58yHOBqm7-23" value="Fenster" style="rounded=0;whiteSpace=wrap;html=1;" vertex="1" parent="1">
          <mxGeometry x="300" y="600" width="70" height="15" as="geometry" />
        </mxCell>
        <mxCell id="BfFW0c4Qb9V58yHOBqm7-25" value="Tür" style="rounded=0;whiteSpace=wrap;html=1;" vertex="1" parent="1">
          <mxGeometry x="290" y="270" width="60" height="20" as="geometry" />
        </mxCell>
        <mxCell id="BfFW0c4Qb9V58yHOBqm7-26" value="Tür" style="rounded=0;whiteSpace=wrap;html=1;" vertex="1" parent="1">
          <mxGeometry x="290" y="390" width="60" height="20" as="geometry" />
        </mxCell>
        <mxCell id="BfFW0c4Qb9V58yHOBqm7-27" value="Tür" style="rounded=0;whiteSpace=wrap;html=1;" vertex="1" parent="1">
          <mxGeometry x="670" y="410" width="60" height="20" as="geometry" />
        </mxCell>
        <mxCell id="BfFW0c4Qb9V58yHOBqm7-28" value="Tür" style="rounded=0;whiteSpace=wrap;html=1;" vertex="1" parent="1">
          <mxGeometry x="670" y="270" width="60" height="20" as="geometry" />
        </mxCell>
        <mxCell id="BfFW0c4Qb9V58yHOBqm7-29" value="WS" style="rounded=0;whiteSpace=wrap;html=1;" vertex="1" parent="1">
          <mxGeometry x="22.5" y="320" width="40" height="30" as="geometry" />
        </mxCell>
        <mxCell id="BfFW0c4Qb9V58yHOBqm7-30" value="Wartungsschacht&lt;br&gt;(Steigleitungen Heizung, Zugang zum Heizungskeller)" style="text;html=1;align=left;verticalAlign=middle;whiteSpace=wrap;rounded=0;" vertex="1" parent="1">
          <mxGeometry x="74.5" y="320" width="140" height="30" as="geometry" />
        </mxCell>
      </root>
    </mxGraphModel>
  </diagram>
</mxfile>
